<svg width="80" height="80" viewBox="0 0 80 80" fill="none" xmlns="http://www.w3.org/2000/svg">
<path fill-rule="evenodd" clip-rule="evenodd" d="M67.6351 12.3367C64.0374 8.73245 59.7567 5.87454 55.0412 3.92856C50.3257 1.98258 45.2691 0.987211 40.1643 1.00012C18.7587 1.00012 1.33311 18.3387 1.32446 39.6513C1.32446 46.4627 3.11114 53.1106 6.50714 58.9748L1 79L21.588 73.6223C27.2828 76.7077 33.663 78.3255 40.147 78.3283H40.1643C61.5656 78.3283 78.9912 60.9898 78.9998 39.6771C79.0145 34.5986 78.0177 29.5676 76.0671 24.8748C74.1164 20.182 71.2505 15.9206 67.6351 12.3367ZM40.1643 71.8054H40.1513C34.3696 71.806 28.6942 70.2578 23.7208 67.3233L22.544 66.6258L10.3271 69.8162L13.5847 57.9629L12.8189 56.7488C9.58642 51.627 7.8752 45.6997 7.88285 39.6513C7.8915 21.9382 22.371 7.52738 40.1773 7.52738C44.418 7.518 48.6184 8.34579 52.5355 9.96284C56.4526 11.5799 60.0085 13.9541 62.9975 16.948C66.0025 19.9276 68.3844 23.4705 70.0054 27.3718C71.6263 31.2731 72.4543 35.4555 72.4414 39.6771C72.4328 57.3903 57.9533 71.8054 40.1643 71.8054ZM57.8711 47.7415C56.8977 47.255 52.1303 44.9213 51.2392 44.5984C50.3523 44.2755 49.7077 44.1162 49.0588 45.0806C48.4099 46.0451 46.5497 48.2194 45.9829 48.8653C45.4162 49.5111 44.8495 49.5886 43.8804 49.1064C42.9114 48.6241 39.7836 47.6037 36.0761 44.3143C33.1906 41.7524 31.2439 38.5921 30.6771 37.6234C30.1104 36.6546 30.6166 36.1337 31.1054 35.6514C31.5424 35.2209 32.0745 34.5234 32.559 33.9593C33.0435 33.3953 33.2036 32.9949 33.5281 32.349C33.8525 31.7032 33.6924 31.1392 33.4459 30.657C33.2036 30.1704 31.2612 25.4171 30.4522 23.4839C29.6692 21.6109 28.8688 21.8607 28.2718 21.8348C27.6535 21.8097 27.0347 21.7982 26.4159 21.8004C25.9238 21.8129 25.4397 21.9264 24.9938 22.1338C24.5478 22.3413 24.1498 22.6382 23.8246 23.0059C22.9334 23.9747 20.4286 26.3083 20.4286 31.0617C20.4286 35.815 23.9068 40.4091 24.3913 41.0549C24.8758 41.7008 31.2352 51.4529 40.969 55.6379C43.2878 56.6325 45.0961 57.2267 46.5021 57.6745C48.8252 58.4107 50.9407 58.3031 52.6149 58.0577C54.4794 57.7821 58.3556 55.724 59.1646 53.4679C59.9736 51.2118 59.9736 49.2786 59.7313 48.8739C59.4891 48.4691 58.8358 48.2237 57.8711 47.7415Z" fill="#1DAA61"/>
</svg>
